<svg width="95" height="82" viewBox="0 0 100 100" xmlns="http://www.w3.org/2000/svg">
 <g>
  <title>Layer 1</title>
  <g transform="rotate(78.6466 47.5 41)" stroke="null" id="svg_1">
   <polyline stroke="null" stroke-linecap="round" fill="none" id="svg_13" points="69.05183410644531,49.06361007504165 69.05183410644531,48.970432279631495 "/>
   <path stroke="null" fill="#e21e4c" opacity="NaN" d="m81.51266,65.04647c-10.58843,0.1111 -6.6012,10.89116 -6.6012,10.89116c0,0 -22.24395,5.90043 -22.10851,6.01589c-0.07664,-0.32514 12.01571,-21.76015 12.09235,-21.85437c-0.07664,0.09422 -0.40378,-18.26029 -0.32714,-18.35451c-0.07664,0.09422 16.65051,23.16204 16.94451,23.30183l0,0z" id="svg_36"/>
   <path stroke="null" fill="#d02876" opacity="NaN" d="m64.9974,60.01149l-41.86079,0.20689l16.82928,21.45449c4.26654,-5.22118 8.72458,-6.13127 12.92719,0.30321l12.10433,-21.9646l0,0z" id="svg_37"/>
   <path stroke="null" fill="#ea6634" opacity="NaN" d="m46.69766,21.58058l34.78,43.43455c0.12896,-5.20399 1.74746,-13.01731 1.87642,-18.22131c-7.11154,-7.46524 -3.90965,-10.47593 -1.20409,-15.60062l-10.53936,-10.96263c-8.25206,0.51213 -16.66091,0.83788 -24.91297,1.35z" id="svg_38"/>
   <path stroke="null" fill="#0ca8e2" opacity="NaN" d="m12.43163,18.03552c10.59026,-0.72354 6.18508,-10.71908 6.18508,-10.71908c0,0 21.95323,-7.31728 21.88032,-7.21983c0.0729,-0.09745 -11.15001,22.17534 -11.22291,22.27279c0.0729,-0.09744 1.13646,18.00071 1.06356,18.09815c0.0729,-0.09744 -17.90605,-22.43202 -17.90605,-22.43202l0,0z" id="svg_39"/>
   <path stroke="null" fill="#faae14" opacity="NaN" d="m29.19152,22.47458l42.64273,-2.03612l-18.59549,-20.41455c-4.13578,5.52156 -8.54993,6.58343 -12.85998,0.03198l-11.18725,22.41869l0,0z" id="svg_40"/>
   <path stroke="null" fill="#26449a" opacity="NaN" d="m46.05212,60.16849l-33.50393,-42.15936c-0.35302,5.2229 -0.54924,10.4458 -0.90225,15.66869c6.74817,7.9433 3.43463,10.77166 0.52325,15.75559l11.02347,10.84157l22.85946,-0.1065l0,0z" id="svg_41"/>
  </g>
 </g>

</svg>